<svg width="724" height="169" xmlns="http://www.w3.org/2000/svg" xmlns:xlink="http://www.w3.org/1999/xlink" xml:space="preserve" overflow="hidden"><defs><clipPath id="clip0"><rect x="290" y="255" width="724" height="169"/></clipPath><linearGradient x1="515.209" y1="187.434" x2="675.945" y2="480.272" gradientUnits="userSpaceOnUse" spreadMethod="pad" id="fill1"><stop offset="0" stop-color="#9C8BFE"/><stop offset="1" stop-color="#2B50FF"/></linearGradient><linearGradient x1="366.983" y1="280.208" x2="358.966" y2="161.282" gradientUnits="userSpaceOnUse" spreadMethod="pad" id="fill2"><stop offset="0" stop-color="#E3AFFE"/><stop offset="1" stop-color="#2B50FF"/></linearGradient><linearGradient x1="339.833" y1="251.78" x2="336.655" y2="198.744" gradientUnits="userSpaceOnUse" spreadMethod="pad" id="fill3"><stop offset="0" stop-color="#748DFA"/><stop offset="1" stop-color="#C1B8FF"/></linearGradient><linearGradient x1="366.61" y1="199.406" x2="331.082" y2="291.3" gradientUnits="userSpaceOnUse" spreadMethod="pad" id="fill4"><stop offset="0" stop-color="#DBABFE"/><stop offset="1" stop-color="#C8F2FF"/></linearGradient><linearGradient x1="369.17" y1="198.557" x2="335.983" y2="245.993" gradientUnits="userSpaceOnUse" spreadMethod="pad" id="stroke5"><stop offset="0" stop-color="#FFFFFF"/><stop offset="0.46875" stop-color="#FFFFFF" stop-opacity="0"/><stop offset="1" stop-color="#FFFFFF" stop-opacity="0"/></linearGradient><linearGradient x1="378.752" y1="221.569" x2="411.083" y2="175.73" gradientUnits="userSpaceOnUse" spreadMethod="pad" id="stroke6"><stop offset="0" stop-color="#FFFFFF"/><stop offset="0.46875" stop-color="#FFFFFF" stop-opacity="0"/><stop offset="1" stop-color="#FFFFFF" stop-opacity="0"/></linearGradient><linearGradient x1="405.519" y1="173.592" x2="409.26" y2="222.227" gradientUnits="userSpaceOnUse" spreadMethod="pad" id="fill7"><stop offset="0" stop-color="#DBABFE"/><stop offset="1" stop-color="#B1E8FA"/></linearGradient><linearGradient x1="356.715" y1="253.912" x2="350.448" y2="271.193" gradientUnits="userSpaceOnUse" spreadMethod="pad" id="stroke8"><stop offset="0" stop-color="#AA5FE6" stop-opacity="0"/><stop offset="1" stop-color="#2E75FE"/></linearGradient><linearGradient x1="350.864" y1="235.329" x2="339.765" y2="259.744" gradientUnits="userSpaceOnUse" spreadMethod="pad" id="stroke9"><stop offset="0" stop-color="#AA5FE6" stop-opacity="0"/><stop offset="1" stop-color="#2E75FE"/></linearGradient><linearGradient x1="353.774" y1="211.139" x2="340.952" y2="235.597" gradientUnits="userSpaceOnUse" spreadMethod="pad" id="stroke10"><stop offset="0" stop-color="#AA5FE6" stop-opacity="0"/><stop offset="1" stop-color="#2E75FE"/></linearGradient></defs><g clip-path="url(#clip0)" transform="translate(-290 -255)"><path d="M0 0 1280.24 0 1280.24 463.908 0 463.908Z" fill="none" transform="matrix(1 0 0 1.00081 -0.255482 128.069)"/><path d="M589.722 261.071 569.151 213.627C567.428 209.675 565.705 205.513 563.982 201.142 563.034 198.739 562.087 196.272 561.14 193.743L560.908 193.122 560.765 192.739 560.606 192.309 560.117 192.309 560.127 192.486 560.156 193.058 560.166 193.275C560.704 203.942 560.972 213.736 560.972 222.652L560.972 261.071 551.023 261.071 551.023 181.62 565.367 181.62 584.594 226.572C586.654 231.396 588.911 237.144 591.365 243.812L591.858 245.158 592.163 245.158 592.21 245.03 592.302 244.777 592.408 244.486C595.227 236.778 597.568 230.803 599.427 226.572L618.654 181.62 632.998 181.62 632.998 261.071 623.049 261.071 623.049 222.652C623.049 214.228 623.299 204.812 623.8 194.403L623.855 193.272 623.866 193.058 623.894 192.486 623.904 192.309 623.415 192.309 623.146 193.032 623.114 193.119C620.214 200.895 617.465 207.736 614.869 213.627L594.3 261.071 589.722 261.071ZM718.209 234.053C719.389 229.975 719.979 225.622 719.979 220.99 719.979 216.398 719.389 212.121 718.209 208.164 717.07 204.165 715.32 200.582 712.96 197.415 710.64 194.209 707.69 191.439 704.109 189.102 700.569 186.766 696.418 184.945 691.658 183.639 688.93 182.886 685.981 182.371 682.807 182.095 681.362 181.951 679.864 181.839 678.31 181.761 676.45 181.667 674.509 181.62 672.491 181.62L653.813 181.62 653.813 261.071 672.308 261.071C674.622 261.071 676.833 261.017 678.941 260.909L679.099 260.902 679.955 260.853C680.864 260.798 681.754 260.732 682.623 260.656 685.797 260.339 688.748 259.806 691.474 259.053 696.235 257.747 700.386 255.905 703.926 253.53 707.507 251.156 710.477 248.344 712.838 245.098 715.239 241.813 717.029 238.132 718.209 234.053ZM704.354 202.403C707.772 207.154 709.481 213.349 709.481 220.99 709.481 228.708 707.772 235.044 704.354 239.992 700.935 244.94 696.032 248.404 689.643 250.383 688.628 250.695 687.564 250.967 686.451 251.198 684.886 251.521 683.223 251.765 681.464 251.927 678.452 252.205 675.054 252.342 671.27 252.342L663.762 252.342 663.762 190.349 671.27 190.349C675.054 190.349 678.452 190.487 681.464 190.764 684.474 191.042 687.202 191.557 689.643 192.309 696.032 194.288 700.935 197.652 704.354 202.403ZM842.824 232.331C842.824 229.046 842.458 226.097 841.724 223.484 841.036 220.871 839.974 218.654 838.552 216.833 837.13 214.973 835.379 213.548 833.299 212.557 832.611 212.23 831.893 211.955 831.129 211.736 830.875 211.663 830.621 211.595 830.359 211.534 829.042 211.227 827.62 211.074 826.101 211.074 824.148 211.074 822.353 211.331 820.729 211.845 819.143 212.359 817.698 213.013 816.396 213.805 815.095 214.596 813.972 215.447 813.037 216.358 812.102 217.269 811.346 218.08 810.777 218.793L810.777 248.305C812.775 250.285 815.027 251.848 817.556 252.995 818.813 253.56 820.115 253.986 821.47 254.274 822.001 254.388 822.547 254.48 823.101 254.55 823.976 254.662 824.867 254.719 825.779 254.719L825.794 254.719C826.752 254.719 827.74 254.628 828.757 254.447 829.64 254.289 830.546 254.062 831.474 253.768 833.464 253.095 835.297 251.927 836.966 250.264 838.672 248.561 840.078 246.266 841.178 243.377 842.271 240.486 842.824 236.804 842.824 232.331ZM852.417 237.663C852.215 239.443 851.908 241.11 851.489 242.663 850.718 245.672 849.678 248.305 848.376 250.561 847.074 252.817 845.548 254.719 843.797 256.262 842.794 257.129 841.769 257.902 840.722 258.584 839.944 259.087 839.165 259.54 838.365 259.943 836.494 260.853 834.586 261.507 832.633 261.902 830.718 262.338 828.907 262.556 827.201 262.556 823.654 262.556 820.587 262.002 817.983 260.893 815.701 259.889 813.628 258.476 811.75 256.654 811.608 256.511 811.466 256.369 811.323 256.223 811.196 256.098 811.077 255.974 810.964 255.847L810.777 255.847 810.777 288.684 801.319 288.684 801.319 204.659 810.471 204.659 810.471 211.074 810.658 211.074C810.83 210.813 811.017 210.556 811.219 210.302 811.638 209.779 812.124 209.263 812.67 208.757 813.523 208.005 814.646 207.213 816.03 206.382 816.703 205.97 817.437 205.586 818.222 205.226 819.105 204.826 820.063 204.459 821.095 204.125 821.904 203.869 822.734 203.664 823.595 203.512 824.859 203.288 826.184 203.175 827.56 203.175 830.823 203.175 833.95 203.71 836.966 204.778 840.018 205.847 842.705 207.55 845.024 209.886 847.344 212.221 849.192 215.23 850.576 218.911 851.998 222.553 852.709 226.987 852.709 232.213 852.709 234.135 852.611 235.951 852.417 237.663ZM935.995 232.925C935.995 229.442 935.546 226.354 934.656 223.662 933.803 220.931 932.583 218.633 930.989 216.773 929.448 214.873 927.592 213.449 925.437 212.498 923.282 211.508 920.918 211.014 918.359 211.014 915.793 211.014 913.436 211.508 911.273 212.498 909.118 213.449 907.248 214.873 905.661 216.773 904.794 217.818 904.03 219.001 903.364 220.32 902.848 221.35 902.392 222.464 902.003 223.662 901.142 226.354 900.716 229.442 900.716 232.925 900.716 236.369 901.142 239.457 902.003 242.189 902.893 244.88 904.135 247.157 905.721 249.018 907.308 250.878 909.178 252.303 911.341 253.293 913.496 254.244 915.853 254.719 918.419 254.719 920.985 254.719 923.32 254.244 925.437 253.293 926.979 252.588 928.356 251.661 929.583 250.514 930.077 250.051 930.548 249.553 930.989 249.018 932.583 247.157 933.803 244.88 934.656 242.189 935.546 239.457 935.995 236.369 935.995 232.925ZM945.887 232.925C945.887 237.359 945.236 241.396 943.934 245.039 942.632 248.681 940.776 251.809 938.382 254.422 936.018 256.994 933.152 258.993 929.77 260.418 926.395 261.844 922.609 262.556 918.419 262.556 914.102 262.556 910.241 261.844 906.821 260.418 904.921 259.617 903.177 258.633 901.584 257.469 901.411 257.339 901.232 257.209 901.06 257.074 900.02 256.27 899.055 255.386 898.157 254.422 895.792 251.809 893.982 248.681 892.717 245.039 892.014 242.991 891.505 240.816 891.191 238.517L891.153 238.216C890.936 236.52 890.831 234.756 890.831 232.925 890.831 228.451 891.482 224.394 892.784 220.752 893.518 218.704 894.415 216.818 895.478 215.096L895.538 215.007C896.353 213.7 897.266 212.488 898.276 211.37 900.678 208.757 903.566 206.738 906.941 205.313 910.36 203.888 914.169 203.175 918.359 203.175 922.632 203.175 926.477 203.888 929.897 205.313 933.309 206.738 936.205 208.757 938.562 211.37 940.919 213.983 942.729 217.111 943.994 220.752 944.458 222.092 944.839 223.489 945.131 224.939L945.191 225.231C945.655 227.641 945.887 230.206 945.887 232.925ZM976.587 259.943 964.196 288.684 973.602 288.684 1009.79 204.659 999.842 204.659 981.593 248.899 981.226 248.899 963.224 204.659 953.519 204.659 976.587 259.943ZM787.896 235.787C785.352 249.711 773.073 260.247 758.79 260.247 742.478 260.247 729.206 246.852 729.206 230.387 729.206 220.419 734.071 211.575 741.531 206.149 746.423 202.538 752.452 200.404 758.962 200.404 771.248 200.404 782.067 207.869 786.527 219.398L788.24 223.81 788.046 223.884 788.068 223.934 742.402 241.925C742.482 242.04 742.561 242.152 742.643 242.264L742.821 242.506C743.147 242.943 743.49 243.366 743.849 243.774 747.55 247.979 752.961 250.636 758.962 250.636 763.361 250.636 767.477 249.173 770.836 246.695 775.326 243.309 778.416 238.091 778.91 232.132L779.067 232.146C779.067 232.138 779.067 232.132 779.067 232.126L779.074 232.008 788.442 232.811C788.367 233.768 788.24 234.712 788.068 235.642L787.896 235.787ZM747.047 213.806C742.027 217.517 738.759 223.504 738.759 230.246 738.759 230.51 738.765 230.775 738.776 231.039L738.782 231.207 738.787 231.304C738.801 231.567 738.82 231.83 738.843 232.09L738.86 232.267 738.901 232.641 738.949 233.037 775.356 218.692C771.637 213.294 765.531 209.998 758.775 209.998 754.405 210.001 750.357 211.413 747.047 213.806ZM535.763 252.342 535.763 261.071 485.955 261.071 485.955 181.62 495.904 181.62 495.904 252.342 535.763 252.342ZM865.743 175.088 875.201 175.088 875.201 261.071 865.743 261.071 865.743 175.088Z" fill="none" fill-rule="evenodd" transform="matrix(1 0 0 1.00081 -0.255482 128.069)"/><path d="M589.722 261.071 569.151 213.627C567.428 209.675 565.705 205.513 563.982 201.142 563.034 198.739 562.087 196.272 561.14 193.743L560.908 193.122 560.765 192.739 560.606 192.309 560.117 192.309 560.127 192.486 560.156 193.058 560.166 193.275C560.704 203.942 560.972 213.736 560.972 222.652L560.972 261.071 551.023 261.071 551.023 181.62 565.367 181.62 584.594 226.572C586.654 231.396 588.911 237.144 591.365 243.812L591.858 245.158 592.163 245.158 592.21 245.03 592.302 244.777 592.408 244.486C595.227 236.778 597.568 230.803 599.427 226.572L618.654 181.62 632.998 181.62 632.998 261.071 623.049 261.071 623.049 222.652C623.049 214.228 623.299 204.812 623.8 194.403L623.855 193.272 623.866 193.058 623.894 192.486 623.904 192.309 623.415 192.309 623.146 193.032 623.114 193.119C620.214 200.895 617.465 207.736 614.869 213.627L594.3 261.071 589.722 261.071ZM718.209 234.053C719.389 229.975 719.979 225.622 719.979 220.99 719.979 216.398 719.389 212.121 718.209 208.164 717.07 204.165 715.32 200.582 712.96 197.415 710.64 194.209 707.69 191.439 704.109 189.102 700.569 186.766 696.418 184.945 691.658 183.639 688.93 182.886 685.981 182.371 682.807 182.095 681.362 181.951 679.864 181.839 678.31 181.761 676.45 181.667 674.509 181.62 672.491 181.62L653.813 181.62 653.813 261.071 672.308 261.071C674.622 261.071 676.833 261.017 678.941 260.909L679.099 260.902 679.955 260.853C680.864 260.798 681.754 260.732 682.623 260.656 685.797 260.339 688.748 259.806 691.474 259.053 696.235 257.747 700.386 255.905 703.926 253.53 707.507 251.156 710.477 248.344 712.838 245.098 715.239 241.813 717.029 238.132 718.209 234.053ZM704.354 202.403C707.772 207.154 709.481 213.349 709.481 220.99 709.481 228.708 707.772 235.044 704.354 239.992 700.935 244.94 696.032 248.404 689.643 250.383 688.628 250.695 687.564 250.967 686.451 251.198 684.886 251.521 683.223 251.765 681.464 251.927 678.452 252.205 675.054 252.342 671.27 252.342L663.762 252.342 663.762 190.349 671.27 190.349C675.054 190.349 678.452 190.487 681.464 190.764 684.474 191.042 687.202 191.557 689.643 192.309 696.032 194.288 700.935 197.652 704.354 202.403ZM842.824 232.331C842.824 229.046 842.458 226.097 841.724 223.484 841.036 220.871 839.974 218.654 838.552 216.833 837.13 214.973 835.379 213.548 833.299 212.557 832.611 212.23 831.893 211.955 831.129 211.736 830.875 211.663 830.621 211.595 830.359 211.534 829.042 211.227 827.62 211.074 826.101 211.074 824.148 211.074 822.353 211.331 820.729 211.845 819.143 212.359 817.698 213.013 816.396 213.805 815.095 214.596 813.972 215.447 813.037 216.358 812.102 217.269 811.346 218.08 810.777 218.793L810.777 248.305C812.775 250.285 815.027 251.848 817.556 252.995 818.813 253.56 820.115 253.986 821.47 254.274 822.001 254.388 822.547 254.48 823.101 254.55 823.976 254.662 824.867 254.719 825.779 254.719L825.794 254.719C826.752 254.719 827.74 254.628 828.757 254.447 829.64 254.289 830.546 254.062 831.474 253.768 833.464 253.095 835.297 251.927 836.966 250.264 838.672 248.561 840.078 246.266 841.178 243.377 842.271 240.486 842.824 236.804 842.824 232.331ZM852.417 237.663C852.215 239.443 851.908 241.11 851.489 242.663 850.718 245.672 849.678 248.305 848.376 250.561 847.074 252.817 845.548 254.719 843.797 256.262 842.794 257.129 841.769 257.902 840.722 258.584 839.944 259.087 839.165 259.54 838.365 259.943 836.494 260.853 834.586 261.507 832.633 261.902 830.718 262.338 828.907 262.556 827.201 262.556 823.654 262.556 820.587 262.002 817.983 260.893 815.701 259.889 813.628 258.476 811.75 256.654 811.608 256.511 811.466 256.369 811.323 256.223 811.196 256.098 811.077 255.974 810.964 255.847L810.777 255.847 810.777 288.684 801.319 288.684 801.319 204.659 810.471 204.659 810.471 211.074 810.658 211.074C810.83 210.813 811.017 210.556 811.219 210.302 811.638 209.779 812.124 209.263 812.67 208.757 813.523 208.005 814.646 207.213 816.03 206.382 816.703 205.97 817.437 205.586 818.222 205.226 819.105 204.826 820.063 204.459 821.095 204.125 821.904 203.869 822.734 203.664 823.595 203.512 824.859 203.288 826.184 203.175 827.56 203.175 830.823 203.175 833.95 203.71 836.966 204.778 840.018 205.847 842.705 207.55 845.024 209.886 847.344 212.221 849.192 215.23 850.576 218.911 851.998 222.553 852.709 226.987 852.709 232.213 852.709 234.135 852.611 235.951 852.417 237.663ZM935.995 232.925C935.995 229.442 935.546 226.354 934.656 223.662 933.803 220.931 932.583 218.633 930.989 216.773 929.448 214.873 927.592 213.449 925.437 212.498 923.282 211.508 920.918 211.014 918.359 211.014 915.793 211.014 913.436 211.508 911.273 212.498 909.118 213.449 907.248 214.873 905.661 216.773 904.794 217.818 904.03 219.001 903.364 220.32 902.848 221.35 902.392 222.464 902.003 223.662 901.142 226.354 900.716 229.442 900.716 232.925 900.716 236.369 901.142 239.457 902.003 242.189 902.893 244.88 904.135 247.157 905.721 249.018 907.308 250.878 909.178 252.303 911.341 253.293 913.496 254.244 915.853 254.719 918.419 254.719 920.985 254.719 923.32 254.244 925.437 253.293 926.979 252.588 928.356 251.661 929.583 250.514 930.077 250.051 930.548 249.553 930.989 249.018 932.583 247.157 933.803 244.88 934.656 242.189 935.546 239.457 935.995 236.369 935.995 232.925ZM945.887 232.925C945.887 237.359 945.236 241.396 943.934 245.039 942.632 248.681 940.776 251.809 938.382 254.422 936.018 256.994 933.152 258.993 929.77 260.418 926.395 261.844 922.609 262.556 918.419 262.556 914.102 262.556 910.241 261.844 906.821 260.418 904.921 259.617 903.177 258.633 901.584 257.469 901.411 257.339 901.232 257.209 901.06 257.074 900.02 256.27 899.055 255.386 898.157 254.422 895.792 251.809 893.982 248.681 892.717 245.039 892.014 242.991 891.505 240.816 891.191 238.517L891.153 238.216C890.936 236.52 890.831 234.756 890.831 232.925 890.831 228.451 891.482 224.394 892.784 220.752 893.518 218.704 894.415 216.818 895.478 215.096L895.538 215.007C896.353 213.7 897.266 212.488 898.276 211.37 900.678 208.757 903.566 206.738 906.941 205.313 910.36 203.888 914.169 203.175 918.359 203.175 922.632 203.175 926.477 203.888 929.897 205.313 933.309 206.738 936.205 208.757 938.562 211.37 940.919 213.983 942.729 217.111 943.994 220.752 944.458 222.092 944.839 223.489 945.131 224.939L945.191 225.231C945.655 227.641 945.887 230.206 945.887 232.925ZM976.587 259.943 964.196 288.684 973.602 288.684 1009.79 204.659 999.842 204.659 981.593 248.899 981.226 248.899 963.224 204.659 953.519 204.659 976.587 259.943ZM787.896 235.787C785.352 249.711 773.073 260.247 758.79 260.247 742.478 260.247 729.206 246.852 729.206 230.387 729.206 220.419 734.071 211.575 741.531 206.149 746.423 202.538 752.452 200.404 758.962 200.404 771.248 200.404 782.067 207.869 786.527 219.398L788.24 223.81 788.046 223.884 788.068 223.934 742.402 241.925C742.482 242.04 742.561 242.152 742.643 242.264L742.821 242.506C743.147 242.943 743.49 243.366 743.849 243.774 747.55 247.979 752.961 250.636 758.962 250.636 763.361 250.636 767.477 249.173 770.836 246.695 775.326 243.309 778.416 238.091 778.91 232.132L779.067 232.146C779.067 232.138 779.067 232.132 779.067 232.126L779.074 232.008 788.442 232.811C788.367 233.768 788.24 234.712 788.068 235.642L787.896 235.787ZM747.047 213.806C742.027 217.517 738.759 223.504 738.759 230.246 738.759 230.51 738.765 230.775 738.776 231.039L738.782 231.207 738.787 231.304C738.801 231.567 738.82 231.83 738.843 232.09L738.86 232.267 738.901 232.641 738.949 233.037 775.356 218.692C771.637 213.294 765.531 209.998 758.775 209.998 754.405 210.001 750.357 211.413 747.047 213.806ZM535.763 252.342 535.763 261.071 485.955 261.071 485.955 181.62 495.904 181.62 495.904 252.342 535.763 252.342ZM865.743 175.088 875.201 175.088 875.201 261.071 865.743 261.071 865.743 175.088Z" fill="url(#fill1)" fill-rule="evenodd" transform="matrix(1 0 0 1.00081 -0.255482 128.069)"/><path d="M417.928 210.759 332.03 292.638 356.588 212.584 329.253 211.565 415.752 129.412 390.657 209.626 417.928 210.759Z" fill="url(#fill2)" fill-rule="evenodd" transform="matrix(1 0 0 1.00081 -0.255482 128.069)"/><path d="M352.974 215.897 331.46 292.898 370.665 200.078C370.913 199.492 370.362 198.884 369.754 199.072L328.536 211.86 352.35 214.954C352.802 215.013 353.097 215.459 352.974 215.897Z" fill="url(#fill3)" transform="matrix(1 0 0 1.00081 -0.255482 128.069)"/><path d="M352.974 215.897 331.46 292.898 370.665 200.078C370.913 199.492 370.362 198.884 369.754 199.072L328.536 211.86 352.35 214.954C352.802 215.013 353.097 215.459 352.974 215.897Z" fill="url(#fill4)" transform="matrix(1 0 0 1.00081 -0.255482 128.069)"/><path d="M352.974 215.897 331.46 292.898 370.665 200.078C370.913 199.492 370.362 198.884 369.754 199.072L328.536 211.86 352.35 214.954C352.802 215.013 353.097 215.459 352.974 215.897Z" stroke="url(#stroke5)" stroke-width="0.748239" fill="none" transform="matrix(1 0 0 1.00081 -0.255482 128.069)"/><path d="M394.247 202.173 415.328 129.974 377.297 220.145C377.057 220.715 377.573 221.314 378.172 221.161L417.509 211.1 394.716 203.089C394.342 202.957 394.135 202.554 394.247 202.173Z" stroke="url(#stroke6)" stroke-width="0.748239" fill="url(#fill7)" transform="matrix(1 0 0 1.00081 -0.255482 128.069)"/><path d="M400.69 240.126C415.788 244.356 425.536 251.018 425.453 258.426 425.315 270.82 397.71 280.608 363.797 280.288 329.883 279.969 302.503 269.662 302.641 257.268 302.735 248.864 315.458 241.657 334.215 237.989" stroke="url(#stroke8)" stroke-width="5.23768" fill="none" transform="matrix(1 0 0 1.00081 -0.255482 128.069)"/><path d="M403.693 233.437C417.578 241.42 425.394 250.68 423.145 258.396 419.383 271.306 388.87 275.007 354.995 266.662 321.119 258.317 296.707 241.086 300.47 228.176 303.021 219.421 317.873 214.902 337.734 215.501" stroke="url(#stroke9)" stroke-width="5.23768" fill="none" transform="matrix(1 0 0 1.00081 -0.255482 128.069)"/><path d="M403.498 232.586C414.855 243.273 420.115 253.555 416.138 259.89 409.483 270.487 379.485 266.019 349.137 249.91 318.787 233.801 299.58 212.151 306.236 201.553 310.748 194.367 325.995 194.108 344.807 199.71" stroke="url(#stroke10)" stroke-width="5.23768" fill="none" transform="matrix(1 0 0 1.00081 -0.255482 128.069)"/></g></svg>
